HIERARCHY
ROOT ROOT
{
	OFFSET 0.000000 56.020000 -5.659234
	CHANNELS 6 Xposition Yposition Zposition Xrotation Yrotation Zrotation 
	JOINT C_spine0001_bind_JNT
	{
		OFFSET 0.000000 1.618999 0.000000
		CHANNELS 3 Xrotation Yrotation Zrotation
		JOINT C_spine0002_bind_JNT
		{
			OFFSET 0.000000 4.942001 0.000001
			CHANNELS 3 Xrotation Yrotation Zrotation
			JOINT C_spine0003_bind_JNT
			{
				OFFSET 0.000000 4.942001 -0.000000
				CHANNELS 3 Xrotation Yrotation Zrotation
				JOINT C_neck0001_bind_JNT
				{
					OFFSET 0.000000 17.026009 -0.000000
					CHANNELS 3 Xrotation Yrotation Zrotation
					JOINT C_neck0002_bind_JNT
					{
						OFFSET 0.000000 3.249985 0.000000
						CHANNELS 3 Xrotation Yrotation Zrotation
						JOINT C_head_bind_JNT
						{
							OFFSET 0.000000 5.278008 0.000000
							CHANNELS 3 Xrotation Yrotation Zrotation
							End Site
							{
								OFFSET 0.000000 0.000000 0.000000
							}
						}
					}
				}
				JOINT L_clavicle_bind_JNT
				{
					OFFSET 4.590000 12.067001 0.834000
					CHANNELS 3 Xrotation Yrotation Zrotation
					JOINT L_armUpper0001_bind_JNT
					{
						OFFSET 7.812635 0.512001 -3.452945
						CHANNELS 3 Xrotation Yrotation Zrotation
						JOINT L_armLower0001_bind_JNT
						{
							OFFSET 15.265892 -6.552116 -0.058157
							CHANNELS 3 Xrotation Yrotation Zrotation
							JOINT L_hand0001_bind_JNT
							{
								OFFSET 14.747667 -6.369995 5.049225
								CHANNELS 3 Xrotation Yrotation Zrotation
								End Site
								{
									OFFSET 0.000000 0.000000 0.000000
								}
							}
						}
					}
				}
				JOINT R_clavicle_bind_JNT
				{
					OFFSET -4.590000 12.067001 0.834000
					CHANNELS 3 Xrotation Yrotation Zrotation
					JOINT R_armUpper0001_bind_JNT
					{
						OFFSET -7.812635 0.512001 -3.452945
						CHANNELS 3 Xrotation Yrotation Zrotation
						JOINT R_armLower0001_bind_JNT
						{
							OFFSET -15.265890 -6.552124 -0.058160
							CHANNELS 3 Xrotation Yrotation Zrotation
							JOINT R_hand0001_bind_JNT
							{
								OFFSET -14.746784 -6.369629 5.048937
								CHANNELS 3 Xrotation Yrotation Zrotation
								End Site
								{
									OFFSET 0.000000 0.000000 0.000000
								}
							}
						}
					}
				}
			}
		}
	}
	JOINT C_pelvis0001_bind_JNT
	{
		OFFSET -0.000000 0.000000 0.000000
		CHANNELS 3 Xrotation Yrotation Zrotation
		JOINT L_legUpper0001_bind_JNT
		{
			OFFSET 6.599999 -6.027000 0.539000
			CHANNELS 3 Xrotation Yrotation Zrotation
			JOINT L_legLower0001_bind_JNT
			{
				OFFSET -0.140713 -19.187443 0.040261
				CHANNELS 3 Xrotation Yrotation Zrotation
				JOINT L_foot0001_bind_JNT
				{
					OFFSET -0.132215 -18.028637 -1.138370
					CHANNELS 3 Xrotation Yrotation Zrotation
					JOINT L_foot0002_bind_JNT
					{
						OFFSET 0.007014 -4.693133 9.886524
						CHANNELS 3 Xrotation Yrotation Zrotation
						End Site
						{
							OFFSET 0.000000 0.000000 0.000000
						}
					}
				}
			}
		}
		JOINT R_legUpper0001_bind_JNT
		{
			OFFSET -6.599999 -6.027000 0.539000
			CHANNELS 3 Xrotation Yrotation Zrotation
			JOINT R_legLower0001_bind_JNT
			{
				OFFSET 0.140710 -19.187164 0.040550
				CHANNELS 3 Xrotation Yrotation Zrotation
				JOINT R_foot0001_bind_JNT
				{
					OFFSET 0.132215 -18.028633 -1.138362
					CHANNELS 3 Xrotation Yrotation Zrotation
					JOINT R_foot0002_bind_JNT
					{
						OFFSET -0.007014 -4.693128 9.886505
						CHANNELS 3 Xrotation Yrotation Zrotation
						End Site
						{
							OFFSET 0.000000 0.000000 0.000000
						}
					}
				}
			}
		}
	}
}
MOTION
Frames: 5
Frame Time: 0.033333
0.000000 51.103954 0.000000 -0.033079 -24.194267 -0.050260 3.928505 23.513412 -2.216555 -4.873623 0.159817 0.132027 3.426795 0.588247 -0.031615 17.844475 -4.498900 0.750599 0.047209 -0.350805 0.269673 -5.039722 -7.145443 -0.075409 16.230289 7.299753 21.253021 -20.914326 0.021770 -79.270058 -0.401901 14.533858 -8.856875 0.382915 -14.480656 -22.837610 15.347468 -4.948026 -17.027029 -23.335136 -7.312077 79.535446 6.016882 -23.393167 7.821712 0.948998 16.398680 18.705542 6.802183 23.468344 -4.495992 -9.906426 4.076484 6.195236 12.854993 -0.840783 0.111254 16.074667 -6.641040 -13.052513 -22.639002 -6.280295 11.464233 -6.070605 -1.889520 0.639946 10.314174 -1.658911 2.126179 11.229059 -0.391410 -4.873330 -18.145372 -0.344661 1.704751 
-0.331316 51.199028 0.007454 0.016302 -23.233620 -0.029020 3.360137 22.740166 -1.108540 -4.725453 0.110415 -0.061199 2.902394 0.265130 -0.397906 18.308825 -4.293199 0.556624 0.438081 -0.249225 0.037247 -3.571025 -7.933199 0.081502 16.824018 7.655265 21.986683 -20.212429 0.769606 -80.803696 -0.836917 13.908170 -8.098927 1.353880 -14.411599 -22.501431 15.939422 -4.941065 -18.081446 -22.951330 -8.353837 79.465248 6.990283 -22.717085 8.404820 1.081817 15.484529 18.296446 7.118711 22.449905 -3.883898 -11.014041 4.050443 6.726122 13.873801 -1.922197 -0.104307 16.412008 -7.018242 -14.460694 -23.778709 -5.971866 11.942151 -7.603200 -1.741298 0.945724 10.716156 -1.664625 1.816009 13.684307 -0.779577 -5.813429 -20.685419 -0.321093 2.062254 
-0.517880 51.254368 -0.073160 0.011285 -23.494320 -0.032426 3.520601 23.172421 -1.184574 -4.608023 -0.014213 0.231662 3.159823 0.281902 -0.430947 18.232180 -4.518857 0.988470 0.469364 -0.066815 -0.091166 -2.908737 -8.646717 0.451137 16.344221 7.521463 22.077868 -19.983065 1.253385 -80.571381 -1.179484 13.930250 -8.456739 1.717152 -14.421524 -22.506044 15.438186 -5.169912 -18.519651 -23.029608 -7.821522 79.389259 6.587544 -22.702642 8.658998 1.616586 14.875600 18.211351 6.895929 22.900356 -3.752723 -10.886600 3.897947 6.540568 13.740507 -2.188003 -0.238138 16.125250 -7.009225 -14.422138 -22.979710 -6.194597 12.158856 -7.272696 -1.834943 1.198343 10.337199 -1.574150 2.152386 13.596990 -0.942176 -6.260110 -20.962946 -0.444653 1.860194 
-0.733236 51.270775 -0.110256 0.021408 -23.109560 -0.025491 3.543143 22.866350 -1.061346 -4.414995 0.055668 0.096561 2.967607 0.178629 -0.294467 18.483816 -4.446585 0.926406 0.507735 -0.229039 -0.012789 -2.586777 -8.503928 0.467674 16.505304 7.603038 21.972633 -19.795918 1.117842 -80.799278 -1.857893 13.742435 -8.520370 1.674934 -14.718895 -22.125277 15.545829 -5.179589 -18.738071 -23.102196 -7.837284 79.437103 7.173763 -22.580643 8.781300 1.354277 14.413901 18.059515 6.689941 22.754786 -3.575114 -11.243064 3.543531 6.935275 14.560560 -2.407473 -0.231973 15.809789 -6.999504 -15.076351 -22.979359 -6.293518 12.471826 -7.045246 -1.924082 1.259942 10.196033 -1.580019 2.045288 13.783555 -1.038682 -6.383083 -20.911976 -0.598397 2.196548 
-0.932352 51.247841 -0.116505 0.015689 -23.173412 -0.022969 3.591283 23.207428 -1.119007 -4.362175 -0.075851 0.211673 3.184817 0.150962 -0.421295 18.682928 -4.550338 1.103984 0.473709 -0.097235 -0.138448 -2.203023 -8.670872 0.757720 16.426821 7.515930 21.813181 -19.695633 1.432453 -80.545204 -1.849655 13.427052 -8.536790 1.360539 -14.827117 -22.050154 15.235867 -5.060480 -18.887268 -22.919762 -7.512510 79.606590 7.086935 -22.646521 8.633701 1.529747 14.358841 17.917664 6.544372 22.993500 -3.482541 -11.936443 3.416727 7.171743 15.533527 -2.512447 -0.417838 15.869199 -7.052886 -15.091505 -23.285856 -6.336955 12.436929 -6.727183 -1.910946 1.339968 10.273062 -1.567808 2.096796 13.900938 -1.414098 -6.680026 -21.336823 -0.683913 2.405243 
